<?xml version="1.0" encoding="UTF-8" standalone="no"?><svg xmlns="http://www.w3.org/2000/svg" xmlns:xlink="http://www.w3.org/1999/xlink" contentStyleType="text/css" height="431px" preserveAspectRatio="none" style="width:816px;height:431px;background:#FFFFFF;" version="1.1" viewBox="0 0 816 431" width="816px" zoomAndPan="magnify"><defs/><g><line style="stroke:#181818;stroke-width:1.5;" x1="35.5" x2="35.5" y1="65.0938" y2="85.0938"/><rect fill="#F1F1F1" height="35.0938" style="stroke:#181818;stroke-width:1.5;" width="51" x="10" y="85.0938"/><text fill="#000000" font-family="sans-serif" font-size="12" lengthAdjust="spacing" textLength="31" x="20" y="107.5508">About</text><line style="stroke:#181818;stroke-width:1.5;" x1="138.5" x2="138.5" y1="65.0938" y2="85.0938"/><rect fill="#F1F1F1" height="35.0938" style="stroke:#181818;stroke-width:1.5;" width="115" x="81" y="85.0938"/><text fill="#000000" font-family="sans-serif" font-size="12" lengthAdjust="spacing" textLength="95" x="91" y="107.5508">kw1: Engineering</text><line style="stroke:#181818;stroke-width:1.5;" x1="138.5" x2="148.5" y1="152.7344" y2="152.7344"/><rect fill="#F1F1F1" height="35.0938" style="stroke:#181818;stroke-width:1.5;" width="95" x="148.5" y="135.1875"/><text fill="#000000" font-family="sans-serif" font-size="12" lengthAdjust="spacing" textLength="75" x="158.5" y="157.6445">kw1a: Design</text><line style="stroke:#181818;stroke-width:1.5;" x1="138.5" x2="148.5" y1="202.8281" y2="202.8281"/><rect fill="#F1F1F1" height="35.0938" style="stroke:#181818;stroke-width:1.5;" width="121" x="148.5" y="185.2813"/><text fill="#000000" font-family="sans-serif" font-size="12" lengthAdjust="spacing" textLength="101" x="158.5" y="207.7383">kw1b: Simulations</text><line style="stroke:#181818;stroke-width:1.5;" x1="138.5" x2="148.5" y1="252.9219" y2="252.9219"/><rect fill="#F1F1F1" height="35.0938" style="stroke:#181818;stroke-width:1.5;" width="200" x="148.5" y="235.375"/><text fill="#000000" font-family="sans-serif" font-size="12" lengthAdjust="spacing" textLength="180" x="158.5" y="257.832">kw1c: Physics based animations</text><line style="stroke:#181818;stroke-width:1.5;" x1="138.5" x2="148.5" y1="303.0156" y2="303.0156"/><rect fill="#F1F1F1" height="35.0938" style="stroke:#181818;stroke-width:1.5;" width="227" x="148.5" y="285.4688"/><text fill="#000000" font-family="sans-serif" font-size="12" lengthAdjust="spacing" textLength="207" x="158.5" y="307.9258">kw1d: Verification with measured data</text><line style="stroke:#181818;stroke-width:1.5;" x1="138.5" x2="138.5" y1="120.1875" y2="303.0156"/><line style="stroke:#181818;stroke-width:1.5;" x1="438.5" x2="438.5" y1="65.0938" y2="85.0938"/><rect fill="#F1F1F1" height="35.0938" style="stroke:#181818;stroke-width:1.5;" width="86" x="395.5" y="85.0938"/><text fill="#000000" font-family="sans-serif" font-size="12" lengthAdjust="spacing" textLength="66" x="405.5" y="107.5508">kw2: Energy</text><line style="stroke:#181818;stroke-width:1.5;" x1="438.5" x2="448.5" y1="152.7344" y2="152.7344"/><rect fill="#F1F1F1" height="35.0938" style="stroke:#181818;stroke-width:1.5;" width="95" x="448.5" y="135.1875"/><text fill="#000000" font-family="sans-serif" font-size="12" lengthAdjust="spacing" textLength="75" x="458.5" y="157.6445">kw2a: Design</text><line style="stroke:#181818;stroke-width:1.5;" x1="438.5" x2="448.5" y1="202.8281" y2="202.8281"/><rect fill="#F1F1F1" height="35.0938" style="stroke:#181818;stroke-width:1.5;" width="122" x="448.5" y="185.2813"/><text fill="#000000" font-family="sans-serif" font-size="12" lengthAdjust="spacing" textLength="102" x="458.5" y="207.7383">kw2b: Engineering</text><line style="stroke:#181818;stroke-width:1.5;" x1="438.5" x2="448.5" y1="252.9219" y2="252.9219"/><rect fill="#F1F1F1" height="35.0938" style="stroke:#181818;stroke-width:1.5;" width="114" x="448.5" y="235.375"/><text fill="#000000" font-family="sans-serif" font-size="12" lengthAdjust="spacing" textLength="94" x="458.5" y="257.832">kw2c: Installation</text><line style="stroke:#181818;stroke-width:1.5;" x1="438.5" x2="448.5" y1="303.0156" y2="303.0156"/><rect fill="#F1F1F1" height="35.0938" style="stroke:#181818;stroke-width:1.5;" width="94" x="448.5" y="285.4688"/><text fill="#000000" font-family="sans-serif" font-size="12" lengthAdjust="spacing" textLength="74" x="458.5" y="307.9258">kw2d: Drilling</text><line style="stroke:#181818;stroke-width:1.5;" x1="438.5" x2="448.5" y1="353.1094" y2="353.1094"/><rect fill="#F1F1F1" height="35.0938" style="stroke:#181818;stroke-width:1.5;" width="114" x="448.5" y="335.5625"/><text fill="#000000" font-family="sans-serif" font-size="12" lengthAdjust="spacing" textLength="94" x="458.5" y="358.0195">kw2e: Production</text><line style="stroke:#181818;stroke-width:1.5;" x1="438.5" x2="448.5" y1="403.2031" y2="403.2031"/><rect fill="#F1F1F1" height="35.0938" style="stroke:#181818;stroke-width:1.5;" width="114" x="448.5" y="385.6563"/><text fill="#000000" font-family="sans-serif" font-size="12" lengthAdjust="spacing" textLength="94" x="458.5" y="408.1133">kw2f: Intervention</text><line style="stroke:#181818;stroke-width:1.5;" x1="438.5" x2="438.5" y1="120.1875" y2="403.2031"/><line style="stroke:#181818;stroke-width:1.5;" x1="612" x2="612" y1="65.0938" y2="85.0938"/><rect fill="#F1F1F1" height="35.0938" style="stroke:#181818;stroke-width:1.5;" width="43" x="590.5" y="85.0938"/><text fill="#000000" font-family="sans-serif" font-size="12" lengthAdjust="spacing" textLength="23" x="600.5" y="107.5508">FAQ</text><line style="stroke:#181818;stroke-width:1.5;" x1="612" x2="622" y1="152.7344" y2="152.7344"/><rect fill="#F1F1F1" height="35.0938" style="stroke:#181818;stroke-width:1.5;" width="101" x="622" y="135.1875"/><text fill="#000000" font-family="sans-serif" font-size="12" lengthAdjust="spacing" textLength="81" x="632" y="157.6445">Projects Types</text><line style="stroke:#181818;stroke-width:1.5;" x1="612" x2="622" y1="202.8281" y2="202.8281"/><rect fill="#F1F1F1" height="35.0938" style="stroke:#181818;stroke-width:1.5;" width="90" x="622" y="185.2813"/><text fill="#000000" font-family="sans-serif" font-size="12" lengthAdjust="spacing" textLength="70" x="632" y="207.7383">How it works</text><line style="stroke:#181818;stroke-width:1.5;" x1="612" x2="612" y1="120.1875" y2="202.8281"/><line style="stroke:#181818;stroke-width:1.5;" x1="774" x2="774" y1="65.0938" y2="85.0938"/><rect fill="#F1F1F1" height="35.0938" style="stroke:#181818;stroke-width:1.5;" width="62" x="743" y="85.0938"/><text fill="#000000" font-family="sans-serif" font-size="12" lengthAdjust="spacing" textLength="42" x="753" y="107.5508">Contact</text><line style="stroke:#181818;stroke-width:1.5;" x1="35.5" x2="774" y1="65.0938" y2="65.0938"/><rect fill="#ADFF2F" height="35.0938" style="stroke:#181818;stroke-width:1.5;" width="54" x="377.75" y="10"/><text fill="#000000" font-family="sans-serif" font-size="12" lengthAdjust="spacing" textLength="34" x="387.75" y="32.457">Home</text><line style="stroke:#181818;stroke-width:1.5;" x1="404.75" x2="404.75" y1="45.0938" y2="65.0938"/><!--SRC=[xPHDZzCm48Rl_XLpewr4sOOLGg5QTKdtWrKh5PejukWuqtIeOrV-Q1NG_dScwHOLn1Ln8QVadTVZPyRZJ7oGBXmAByO-D1gl1BzFILPErl1T00mhXsWQrDeUEg5ztakrhPoDfioijWxkMi-NpiEE9_4ang-UqmtWtjO8u_5PdgihyGAcg6cF3ZGLJhe6UZJ48IXROX-a1uzkJueLjcOQfUb2i7Da5EqqUZXGs4251XqfaAO45NsmDNt34gAXq6a5RkIU636W3ruC1d1Ts1WuwK9wJzQyWto3y7dJjB7jOPJ2ZQd886Sr5MkTA5F6zLIPar2aiAGwQXauXJ-fAeN5fl6aF1JICuOqLFzgALDOSUergKu_5b6ZzD6nlvH1YYD8qeAWgvhdbSdl34dn9zI46JuOFbHzP3l9lE_KaTPdJcHQPykepdthTddWtgFfv1RczlfZ5sRtLrJ1Gzxiy5ZHFGy5T_fWtTPttioQ85KGOeAcRCTAJFxHXFqywl_d-bVETQ6b2O_p6V0bRYyIZ8R9HP8CHvUzF2BNfE3Y3OoIDBbCHwyXM-RGnlkYTxUOWRVHAOIIV71Kn9QfBnxaNiAdo8Gr5z5-zV9v7vOt9v4RioTdJSrLY8VL_6XYsh3SsT2PCqqSXDLSJ74jemwyXlySt9yK7lFRbs_5J9egoeftG2Co7h7W6eujVm00]--></g></svg>